<svg width="37" height="42" viewBox="0 0 37 42" fill="none" xmlns="http://www.w3.org/2000/svg">
<path d="M0 7.875C0 6.42551 1.1835 5.25 2.64286 5.25H34.3571C35.819 5.25 37 6.42551 37 7.875C37 9.32695 35.819 10.5 34.3571 10.5H2.64286C1.1835 10.5 0 9.32695 0 7.875ZM0 21C0 19.548 1.1835 18.375 2.64286 18.375H34.3571C35.819 18.375 37 19.548 37 21C37 22.452 35.819 23.625 34.3571 23.625H2.64286C1.1835 23.625 0 22.452 0 21ZM34.3571 36.75H2.64286C1.1835 36.75 0 35.577 0 34.125C0 32.673 1.1835 31.5 2.64286 31.5H34.3571C35.819 31.5 37 32.673 37 34.125C37 35.577 35.819 36.75 34.3571 36.75Z" fill="white"/>
</svg>
