<svg width="79" height="63" viewBox="0 0 79 63" fill="none" xmlns="http://www.w3.org/2000/svg">
<g clip-path="url(#clip0_10_43)">
<path d="M51.2019 5.01907L35.4019 60.1453C34.797 62.2371 32.6122 63.443 30.5138 62.8523C28.4153 62.2494 27.2056 60.0715 27.7981 57.9797L43.5981 2.8559C44.203 0.764843 46.3878 -0.445938 48.4862 0.151578C50.5847 0.74897 51.7944 2.9285 51.2019 5.01907ZM64.0147 14.9379L77.8397 28.7191C79.3827 30.2572 79.3827 32.7428 77.8397 34.2808L64.0147 48.0621C62.4717 49.6002 59.9783 49.6002 58.4353 48.0621C56.8923 46.524 56.8923 44.0385 58.4353 42.5004L69.4583 31.5L58.4353 20.4996C56.8923 18.9615 56.8923 16.476 58.4353 14.9379C59.9783 13.3998 62.4717 13.3998 64.0147 14.9379ZM20.5647 20.4996L9.53555 31.5L20.5647 42.5004C22.1077 44.0385 22.1077 46.524 20.5647 48.0621C19.0217 49.6002 16.5283 49.6002 14.9853 48.0621L1.15686 34.2808C-0.385619 32.7428 -0.385619 30.2572 1.15686 28.7191L14.9853 14.9379C16.5283 13.3998 19.0217 13.3998 20.5647 14.9379C22.1077 16.476 22.1077 18.9615 20.5647 20.4996Z" fill="black"/>
</g>
<defs>
<clipPath id="clip0_10_43">
<rect width="79" height="63" fill="white"/>
</clipPath>
</defs>
</svg>
