<svg width="86" height="86" viewBox="0 0 86 86" fill="none" xmlns="http://www.w3.org/2000/svg">
<g clip-path="url(#clip0_401_88)">
<circle cx="43" cy="43" r="43" fill="black"/>
<path d="M51.1953 66H44.0703L44.1172 62.3203H51.1953C53.6328 62.3203 55.6641 61.8125 57.2891 60.7969C58.9141 59.7656 60.1328 58.3281 60.9453 56.4844C61.7734 54.625 62.1875 52.4531 62.1875 49.9688V47.8828C62.1875 45.9297 61.9531 44.1953 61.4844 42.6797C61.0156 41.1484 60.3281 39.8594 59.4219 38.8125C58.5156 37.75 57.4062 36.9453 56.0938 36.3984C54.7969 35.8516 53.3047 35.5781 51.6172 35.5781H43.9297V31.875H51.6172C53.8516 31.875 55.8906 32.25 57.7344 33C59.5781 33.7344 61.1641 34.8047 62.4922 36.2109C63.8359 37.6016 64.8672 39.2891 65.5859 41.2734C66.3047 43.2422 66.6641 45.4609 66.6641 47.9297V49.9688C66.6641 52.4375 66.3047 54.6641 65.5859 56.6484C64.8672 58.6172 63.8281 60.2969 62.4688 61.6875C61.125 63.0781 59.5 64.1484 57.5938 64.8984C55.7031 65.6328 53.5703 66 51.1953 66ZM46.4844 31.875V66H41.9609V31.875H46.4844Z" fill="white"/>
<path d="M37.1523 28.6387L25.5508 64H16.2051L32.0547 21.3438H38.002L37.1523 28.6387ZM46.791 64L35.1602 28.6387L34.2227 21.3438H40.2285L56.166 64H46.791ZM46.2637 48.1211V55.0059H23.7344V48.1211H46.2637Z" fill="white"/>
</g>
<defs>
<clipPath id="clip0_401_88">
<rect width="86" height="86" fill="white"/>
</clipPath>
</defs>
</svg>
