<svg width="121" height="139" viewBox="0 0 121 139" fill="none" xmlns="http://www.w3.org/2000/svg">
<path d="M108.036 8.6875H12.9643C5.80692 8.6875 0 14.5244 0 21.7188V117.281C0 124.476 5.80692 130.312 12.9643 130.312H108.036C115.193 130.312 121 124.476 121 117.281V21.7188C121 14.5244 115.193 8.6875 108.036 8.6875ZM65.8478 103.544C65.8478 115.381 58.9335 120.783 48.8592 120.783C39.7571 120.783 34.4904 116.06 31.7895 110.331L41.0536 104.712C42.8362 107.888 44.4567 110.576 48.373 110.576C52.1002 110.576 54.477 109.11 54.477 103.381V64.5318H65.8478V103.544ZM92.7487 120.783C82.1882 120.783 75.3549 115.734 72.0328 109.11L81.2969 103.734C83.7277 107.725 86.9147 110.684 92.5056 110.684C97.2051 110.684 100.23 108.322 100.23 105.037C100.23 101.128 97.1511 99.7434 91.9384 97.4357L89.1025 96.2141C80.8917 92.7119 75.463 88.2867 75.463 78.9748C75.463 70.3959 81.9721 63.8803 92.1004 63.8803C99.3388 63.8803 104.525 66.4051 108.252 73.0293L99.3929 78.7305C97.4482 75.2283 95.3415 73.8438 92.0734 73.8438C88.7513 73.8438 86.6446 75.9613 86.6446 78.7305C86.6446 82.1512 88.7514 83.5357 93.64 85.6805L96.4759 86.9022C106.145 91.0559 111.574 95.3182 111.574 104.874C111.574 115.137 103.525 120.783 92.7487 120.783Z" fill="black"/>
</svg>
